<?xml version="1.0" encoding="UTF-8"?>
<svg version="1.1" viewBox="0 0 2000 2000" width="500" height="500" xmlns="http://www.w3.org/2000/svg">
<path transform="translate(0)" d="m0 0h2e3v2e3h-2e3z" fill="#FDFDFD"/>
<path transform="translate(448,262)" d="m0 0h11l19 2 23 6 21 9 15 9 13 10 15 15 12 16 11 20 7 19 4 20 1 36v264l1 83 13 7 7 10 4 11v8l-4 13-8 10-4 4-6 29v22l6 95 1 16v18l-2 2-6 1h-21l-11-2v-14l5-68 3-42v-32l-5-24-9-11-5-10-1-4v-13l4-11 8-9 10-5h3v-340l-1-38-3-18-6-16-8-17-8-12-10-11v-2l-4-2-11-10-15-10-14-7-21-6-16-2h-26l-19 3-16 5-16 8-9 6-14 11-7 7-9 11-9 14-8 18-5 17-2 12-1 47v389l1 107 3 16 5 14 9 16 12 13 14 10 15 7 14 4 23 2 15 2 18 5 17 8 13 9 12 11 10 13 9 16 6 15 3 15 1 187h912l15 2 6 4 4 5 2 6 1 8v259l-2 10-5 7-6 4-3 1-13 1h-1051l-9-2-8-7-3-7-1-263 1-12 4-8 7-6 2-1 18-1h111l-1-185-3-14-6-15-6-10-9-11-11-10-13-8-11-5-11-3-33-3-19-4-13-5-14-8-14-10-9-9-11-16-8-16-4-11-3-16-1-15v-519l2-21 4-16 6-17 8-17 9-14 9-11 10-10 14-11 13-8 19-9 19-6 16-3z" fill="#322B2E"/>
<path transform="translate(1328,466)" d="m0 0h35l21 3 21 6 13 5 15 9 12 11 8 9 8 13 7 16 5 19 3 19 1 21-1 19-4 24-5 17-8 19-11 18-10 13-8 11-13 16-12 14-25 25-11 9-17 14-19 14-15 10-17 11-26 15-34 18-29 14-36 16-27 11-28 10-49 15-31 7-26 4-10 1h-21l-8-2-7-4-6-8-1-4v-9l2-4 4-2 28-4 23-5 20-6 29-12 24-11 17-8 19-11 14-7 35-20 23-14 22-14 22-15 16-11 16-12 10-8 14-11 13-11 10-9 8-7 20-20 7-8 7-7 10-13 9-14 8-14 8-19 5-21v-29l-5-12-6-7-12-6-5-1h-24l-22 5-21 7-20 9-33 16-22 12-16 10-27 18-13 9-14 11-18 14-14 11-11 10-11 9-10 9-17 16-8 8-8 7-34 34-7 8-7 7-7 8-8 8-18 22-13 15-12 16-13 17-13 19-10 15-13 22-8 13-6 12-8 15-13 29-11 28-8 27-5 26-2 20 1 19 4 20 6 16 11 20 9 10v2l4 2 7 7 14 10 17 9 21 7 16 4 22 3h43l33-4 33-6 36-9 27-9 43-16 30-13 29-14 25-13 17-10 40-24 19-12 21-12 23-13 13-8 11-6 25-13 23-11 15-6 13-3 9-1h22l18 3 16 6 12 7 11 9 7 7 9 12 8 16 5 16 2 12v301l22 2 15 5 11 7 10 10 7 11 5 16 1 9v101l-3 25-6 20-7 12-9 10-9 8-10 6-17 6-10 2h-13l-16-3-15-6-14-9-6-5-9-12-8-16-4-20-2-22v-94l2-16 5-14 8-11 7-7 11-7 9-4 8-2 19-2 1-1v-297l-2-15-8-19-8-11-8-9-13-9-15-7-15-3h-12l-17 3-18 6-16 8-17 11-28 19-23 16-11 8-54 36-22 14-26 16-19 11-27 15-21 11-34 15-27 11-30 10-35 9-36 7-21 3-11 1-24 1h-18l-40-2-29-4-29-6-28-8-24-9-21-11-19-12-13-10-12-11-12-12-13-17-12-19-7-16-5-16-5-23-2-19v-28l3-26 5-28 8-30 9-26 13-32 10-20 17-28 8-12 11-16 8-10 14-18 12-14 12-13 7-8 44-44 8-7 10-9 12-11 11-9 13-11 14-11 11-9 36-27 18-13 14-10 23-16 19-12 15-10 45-27 14-7 19-10 34-16 19-8 27-9 32-8 17-3z" fill="#322B2E"/>
<path transform="translate(1581,152)" d="m0 0h5l-6 7-14 11-16 13-14 11-11 9-14 11-17 14-14 11-13 11-14 11-10 8-16 13-14 11-22 18-25 20-12 9-4-4-8-16-11-21-9-8-15-5-7-1h-36l-21 2-37 6-32 7-31 9-40 12-33 12-24 10-35 15-21 10-38 20-21 12-23 14-21 13-34 24-16 12-13 10-17 14-11 9-10 10-8 7-21 21-9 11-11 15-8 16-3 12 2 11 11 23 9 17v5l-36 8-48 11-50 12h-4v-123l3-5 55-55 7-8 28-28 7-8 46-46 5-6h2l2-4 61-61 7-8 51-51 7-8 14-14 4-3 26-4 98-14 71-10 96-13 88-13 146-20 95-14z" fill="#322B2E"/>
<path transform="translate(1272,302)" d="m0 0h17l17 2 8 3 6 8 30 60 11 23 10 20 9 17v2l-26-2h-26l-26 3-29 6-25 7-24 8-26 11-38 18-17 9-24 14-22 13-18 11-36 24-18 13-16 11-14 10-13 10-16 12-14 11-13 11-13 10-10 9-11 9-14 13-8 7-17 16-30 30-7 8-7 7-4-4-15-30-10-19-11-23-9-19-10-19-11-23-7-16v-10l8-16 8-11 11-12 12-13 15-15 11-9 12-11 17-13 21-16 15-11 24-16 14-9 11-7 20-12 12-7 14-7 22-12 18-8 15-7 27-12 26-10 40-14 30-10 35-9 45-9 29-4z" fill="#322B2E"/>
<path transform="translate(1573,121)" d="m0 0h9l6 13 1 4-7 2-136 19-67 9-95 14-111 15-124 18-125 17-19 3-10 8-16 16-7 8-38 38-7 8-76 76-7 8-39 39-7 8-41 41-7 8-21 21-7 8-9 9-3-1v-24l3-5 43-43 7-8 28-28 7-8 22-22 1-2h2l2-4 63-63 5-6h2l2-4 28-28 7-8 18-18 2-3h2l2-4 36-36 15-3 67-9 98-14 135-18 119-17 68-9 163-23z" fill="#322B2E"/>
<path transform="translate(583,1543)" d="m0 0h297l1 2v40l-2 2h-295l-2-2v-41z" fill="#FDFDFD"/>
<path transform="translate(573,588)" d="m0 0 2 1v89l-1 5-15 4-55 13-34 8-10 2h-5l6-8 34-34 7-8 6-5 7-8 29-29 2-3h2l2-4z" fill="#322B2E"/>
<path transform="translate(1423,912)" d="m0 0 3 1 3 5-2 4-6 3 2 4 7 7 5 12v8l-3 8-6 7-10 6-6 3 3 11 10-2 20-12 9-4 9-1 7 4 4 5 2 6v8l-4 11-6 8-8 7-12 7-6 2-9 1-9-3-5-7-1-4v-15l-5-1-5-5-2-5v-10l-1-2-10-4-7-6-4-8-1-7 2-11 4-8 10-7 23-12z" fill="#322B2E"/>
<path transform="translate(1611,1410)" d="m0 0h8l5 3 6 10 3 11 2 27v39l-2 20-4 20-8 16-4 4h-5l-5-4-7-14-5-23-1-7-1-25v-33l2-18 3-12 4-8 6-5z" fill="#FDFDFD"/>
<path transform="translate(902,1485)" d="m0 0h109l2 1 1 5v26l-1 11-6 1h-100l-6-2v-41z" fill="#FDFDFD"/>
<path transform="translate(383,1485)" d="m0 0h105l3 2v40l-1 1-10 1h-96l-2-4v-36z" fill="#FDFDFD"/>
<path transform="translate(949,1373)" d="m0 0h35l29 1 1 2v40l-4 2h-88l-3-1-1-2v-40l1-1z" fill="#FDFDFD"/>
<path transform="translate(921,1429)" d="m0 0h91l2 2v35l-1 7h-91l-2-6v-37z" fill="#FDFDFD"/>
<path transform="translate(573,542)" d="m0 0h1l1 13v10l-2 6-4 5-8 7-16 16-7 8-33 33-7 8-31 31-7 8-16 16-4-1-6-12v-5l7-8 8-7 15-16 26-26 5-6 31-31 7-8 27-27 7-8z" fill="#322B2E"/>
<path transform="translate(1107,1091)" d="m0 0h13l8 4 7 8 5 13 9 34 1 9-6 2h-4l-2-7-5 4-4 5-10 6-7 2h-8l-10-5-4-6-2-8 1-10 4-6 7-7 14-8 10-4-1-7-6-7-8-1-11 4-8 6-1 2-5-1-3-3 1-4 11-9 10-5z" fill="#322B2E"/>
<path transform="translate(1031,1105)" d="m0 0h15l7 3 5 4 6 10 3 11 1 10-1 1-32 3-17 1 4 11 5 8 8 4h15l8-3 3-2 4 1 1 6-4 4-10 4-5 1h-12l-13-4-7-6-6-10-3-8-1-6v-10l3-12 5-9 8-8z" fill="#322B2E"/>
<path transform="translate(383,1429)" d="m0 0h62l2 2v41l-4 1h-59l-2-3v-37z" fill="#FDFDFD"/>
<path transform="translate(391,1318)" d="m0 0h54l2 2v40l-1 1-12 1h-50l-1-1v-41l1-1z" fill="#FDFDFD"/>
<path transform="translate(384,1374)" d="m0 0h56l1 4-1 39-4 1h-52l-1-1v-42z" fill="#FDFDFD"/>
<path transform="translate(726,1429)" d="m0 0h51l3 1 1 4v34l-1 4-2 1h-51l-2-1-1-3v-33z" fill="#FDFDFD"/>
<path transform="translate(1110,1429)" d="m0 0h53l2 2v41l-1 1h-53l-2-3v-37z" fill="#FDFDFD"/>
<path transform="translate(386,1542)" d="m0 0 50 1 2 2v40l-3 2h-51l-2-6v-33l1-5z" fill="#FDFDFD"/>
<path transform="translate(769,1485)" d="m0 0h53l2 1v42l-9 1h-44l-3-2v-41z" fill="#FDFDFD"/>
<path transform="translate(1326,1543)" d="m0 0h54l1 3v39l-6 2h-48l-2-3v-39z" fill="#FDFDFD"/>
<path transform="translate(1326,1429)" d="m0 0h53l2 2v37l-1 4-2 1h-51l-2-4v-38z" fill="#FDFDFD"/>
<path transform="translate(1392,1429)" d="m0 0h52l2 1 1 7v31l-1 4-3 1h-49l-3-1v-42z" fill="#FDFDFD"/>
<path transform="translate(1119,1373)" d="m0 0 45 1 1 1v41l-5 2h-48l-2-1-1-5v-32l1-6z" fill="#FDFDFD"/>
<path transform="translate(1110,1543)" d="m0 0h54l1 1v41l-5 2h-47l-3-1-1-3v-35z" fill="#FDFDFD"/>
<path transform="translate(637,1485)" d="m0 0h52l2 3v39l-6 2h-42l-7-1-1-3v-39z" fill="#FDFDFD"/>
<path transform="translate(459,1429)" d="m0 0h52l2 1 1 5v32l-1 5-5 1h-47l-3-3v-40z" fill="#FDFDFD"/>
<path transform="translate(1392,1543)" d="m0 0h53l1 1 1 8v32l-1 2-3 1h-44l-7-1-1-1v-41z" fill="#FDFDFD"/>
<path transform="translate(570,1485)" d="m0 0h52l2 1 1 24-1 18-14 1h-36l-5-1-1-2v-35z" fill="#FDFDFD"/>
<path transform="translate(959,1543)" d="m0 0h54l1 2v40l-3 2h-50l-3-2v-41z" fill="#FDFDFD"/>
<path transform="translate(659,1429)" d="m0 0h52l2 1 1 10v27l-1 5-5 1h-48l-2-2v-41z" fill="#FDFDFD"/>
<path transform="translate(793,1429)" d="m0 0h52l2 2v39l-1 2-3 1h-49l-2-1-1-3v-32l1-7z" fill="#FDFDFD"/>
<path transform="translate(1259,1543)" d="m0 0h54l1 2v40l-3 2h-51l-1-1-1-34z" fill="#FDFDFD"/>
<path transform="translate(837,1485)" d="m0 0h51l2 1 1 4v22l-1 15-1 1-7 1h-43l-4-2v-41z" fill="#FDFDFD"/>
<path transform="translate(1326,1485)" d="m0 0h53l2 3v13l-1 27-4 1h-48l-2-1-1-3v-38z" fill="#FDFDFD"/>
<path transform="translate(525,1429)" d="m0 0h53l2 1v42l-2 1h-50l-3-2-1-35z" fill="#FDFDFD"/>
<path transform="translate(1049,1373)" d="m0 0 49 1v43l-3 1h-51l-1-2v-41z" fill="#FDFDFD"/>
<path transform="translate(1259,1485)" d="m0 0h53l2 2v40l-6 2h-46l-3-1-1-9v-26z" fill="#FDFDFD"/>
<path transform="translate(1333,1373)" d="m0 0 47 1 1 4-1 39-5 1h-45l-4-1-1-4v-36l1-3z" fill="#FDFDFD"/>
<path transform="translate(593,1429)" d="m0 0h52l2 2v40l-4 2h-49l-2-1-1-34 1-8z" fill="#FDFDFD"/>
<path transform="translate(703,1485)" d="m0 0h52l2 2v40l-6 2h-45l-4-2-1-36z" fill="#FDFDFD"/>
<path transform="translate(1044,1543)" d="m0 0h53l1 1v41l-3 2h-51l-1-2v-41z" fill="#FDFDFD"/>
<path transform="translate(859,1429)" d="m0 0h52l2 1v42l-1 1h-51l-3-2v-41z" fill="#FDFDFD"/>
<path transform="translate(893,1543)" d="m0 0h53l1 1v42l-3 1h-46l-6-2-1-31 1-10z" fill="#FDFDFD"/>
<path transform="translate(1044,1429)" d="m0 0h52l2 1v42l-2 1h-52l-1-2v-39z" fill="#FDFDFD"/>
<path transform="translate(1259,1429)" d="m0 0h52l3 2v36l-2 6h-52l-1-1z" fill="#FDFDFD"/>
<path transform="translate(450,1543)" d="m0 0h52l2 2v40l-3 2h-49l-2-1-1-3v-38z" fill="#FDFDFD"/>
<path transform="translate(1266,1373)" d="m0 0 47 1 1 1v32l-1 10-6 1h-47l-1-1v-43z" fill="#FDFDFD"/>
<path transform="translate(518,1543)" d="m0 0h51l2 2v40l-3 2h-48l-3-1-1-3v-38z" fill="#FDFDFD"/>
<path transform="translate(503,1485)" d="m0 0h52l2 1v42l-5 1h-42l-7-1-1-1v-41z" fill="#FDFDFD"/>
<path transform="translate(1177,1374)" d="m0 0h53l1 2v40l-3 2h-49l-3-3v-34z" fill="#FDFDFD"/>
<path transform="translate(1392,1485)" d="m0 0h53l2 2v37l-1 4h-55v-42z" fill="#FDFDFD"/>
<path transform="translate(1392,1374)" d="m0 0h54l1 3v37l-1 3h-54l-1-1v-41z" fill="#FDFDFD"/>
<path transform="translate(523,1373)" d="m0 0h17l33 1 1 2v30l-1 11h-53l-1-1-1-36 1-6z" fill="#FDFDFD"/>
<path transform="translate(1178,1543)" d="m0 0h52l1 3v35l-1 5-2 1h-46l-5-2-1-13v-22z" fill="#FDFDFD"/>
<path transform="translate(1111,1485)" d="m0 0h52l2 2v40l-1 1h-54l-1-21v-13l1-8z" fill="#FDFDFD"/>
<path transform="translate(594,1373)" d="m0 0 46 1v43h-54l-1-1v-41l1-1z" fill="#FDFDFD"/>
<path transform="translate(1178,1429)" d="m0 0h50l3 2v40l-2 2h-50l-2-1-1-6 1-36z" fill="#FDFDFD"/>
<path transform="translate(785,1374)" d="m0 0h55v43l-7 1-47-1-1-1z" fill="#FDFDFD"/>
<path transform="translate(852,1374)" d="m0 0h54l1 1v41l-1 1h-53l-1-1z" fill="#FDFDFD"/>
<path transform="translate(719,1374)" d="m0 0h53l1 1v42h-54l-1-2v-40z" fill="#FDFDFD"/>
<path transform="translate(453,1374)" d="m0 0h53l1 2v40l-7 2-46-1-2-5v-35z" fill="#FDFDFD"/>
<path transform="translate(653,1374)" d="m0 0h53l1 3v39l-1 1h-53l-1-1v-41z" fill="#FDFDFD"/>
<path transform="translate(1240,1034)" d="m0 0 9 1 9 6 8 11 14 24 8 14v3l-8 5h-3l-10-18-8-13-9-14-6-5-5-1-7 3-5 5-5 12 3 9 17 29 6 9-1 3-8 4-4-1-28-49-7-14 7-4 4 1 3 5 2-3 5-10 4-5 8-5z" fill="#322B2E"/>
<path transform="translate(1342,966)" d="m0 0h8l7 3 8 7 7 10 17 28 4 6-1 4-7 4-3-1-14-22-9-14-8-10-5-2-7 1-6 4-5 8-2 9 6 11 22 33-2 4-6 4-4-2-10-14-10-16-12-19-5-8 1-4 3-3h5l5 5 5-12 4-6 6-5z" fill="#322B2E"/>
<path transform="translate(322,439)" d="m0 0h1l1 8v468l-2-2-2-7v-8l-1-4v-8l2 1 1-6v-32l-3-21-1-332 2-11 2-9v-9l-2-7-1-1-1-13 1-2v-4z" fill="#241A1E"/>
<path transform="translate(659,1532)" d="m0 0 10 1h10l18 1 5-2 4 1 3-1 4 1 10-1h7l3 1h18l7 2 12-2 6 1 4-1h10l6-1h9l7 1 16 2 7-2 9-1h14l5 1 2-1 15 4 1 4h-4l-37 1h-224l-19-1-5-1 1-2h3v-2l8-1h9l9 1 5 1 2-1h9l3-1 17-1z" fill="#241A1E"/>
<path transform="translate(873,1318)" d="m0 0h37l16 1v34l-1 1h-52l-3-3v-30z" fill="#FDFDFD"/>
<path transform="translate(560,1318)" d="m0 0h48l5 1v34l-2 1h-50l-3-1-1-5v-17l1-12z" fill="#FDFDFD"/>
<path transform="translate(1046,1318)" d="m0 0h47l5 2v33l-1 1h-53l-1-1v-33z" fill="#FDFDFD"/>
<path transform="translate(739,1318)" d="m0 0h41l12 1v33l-4 2h-50l-1-2v-26l1-7z" fill="#FDFDFD"/>
<path transform="translate(807,1318)" d="m0 0h36l15 1 1 1v33l-4 1h-49l-2-3v-31z" fill="#FDFDFD"/>
<path transform="translate(627,1318)" d="m0 0h28l24 1 1 1v33l-4 1h-49l-2-1v-34z" fill="#FDFDFD"/>
<path transform="translate(1115,1318)" d="m0 0h34l15 1 1 2v17l-1 15-2 1h-51l-1-1v-34z" fill="#FDFDFD"/>
<path transform="translate(495,1318)" d="m0 0h48l3 1v34l-3 1h-50l-1-1v-34z" fill="#FDFDFD"/>
<path transform="translate(1179,1318)" d="m0 0h15l36 1 1 1v33l-2 1h-51l-2-3v-26l1-6z" fill="#FDFDFD"/>
<path transform="translate(1407,1318)" d="m0 0h25l7 2 6 7 2 9-2 10-8 7-4 1h-29l-7-4-5-6-1-2v-11l3-6 5-5z" fill="#FDFDFD"/>
<path transform="translate(1277,1318)" d="m0 0h16l13 2 6 6 1 3v14l-3 6-7 4-4 1h-27l-7-3-6-7-1-11 2-7 8-7z" fill="#FDFDFD"/>
<path transform="translate(1338,1318)" d="m0 0h23l12 2 6 7 1 3v13l-4 6-6 4-6 1h-24l-7-3-5-5-2-3v-14l6-8 2-2z" fill="#FDFDFD"/>
<path transform="translate(974,1072)" d="m0 0h8l3 1v11l-6 67-1 22 5 2v8l-14-1-4-5-1-3v-9l7-73z" fill="#322B2E"/>
<path transform="translate(918,1474)" d="m0 0 5 1 5-1 3 2v-2h6v2l6-2 3 1 5 1 1-2h6l-1 2 4-2h19l10 2 14 2 3 2v3l-2 1-104 1-2 5h1v32l-2 3-3-1-1-22v-12l-1-3-3-2-49-1v-2l6-3 11-2 5-1v1h21l9 1 5 1 1-2 6 1 8-1z" fill="#241A1E"/>
<path transform="translate(698,1596)" d="m0 0h3v2h18l4-1 4 1 4-1 8 1 4-1 2 1 10-1h7l3 1h10l2-1h26l2 1 4-2 7 1h15l2 1h12l3 2h11l7 1h5l1 2-4 2h-7l-1-1-5 1-227-1v-3h3v-2l2 1 1 1 7-2h5l2 3 3-1v-2l5 1 3-1 4 2v-2h5v2h4v-2l19-1h4 3z" fill="#241A1E"/>
<path transform="translate(1184,1063)" d="m0 0h6l1 7-1 4-8 3-4 3-3 9v8l6 16 9 23 1 7-7 3-4-1-11-25-13-30-3-9 2-5 6-1 6 9v2h2l1-9 5-8z" fill="#322B2E"/>
<path transform="translate(723,1475)" d="m0 0h2v3h10l12-1 4-1v2h9l5 2v2l4-1v2l5-3h7l13-3 5-1 1 3 8-1 7 1 2 5-49 1-5 1-8-1h-53l-2 9-1 2 1 7-1 18h-2l-2-5 1-4-2-5v-6-3l1-2-1-10-5-1-49-1 3-3 3-2h8l2-2h3v2h7l1-2 5 1 10-1 12 3 1 3 2-2 4-2 10-1 5 1v-2l7-1z" fill="#241A1E"/>
<path transform="translate(1453,984)" d="m0 0 5 1 4 5 1 2v8l-5 8-8 7-10 5h-9l-6-4-2-3v-10l7-6 19-11z" fill="#FDFDFD"/>
<path transform="translate(1279,1008)" d="m0 0 4 1 11 16 14 20 14 21 1 3-8 6-4-2-11-16-12-17-16-24-1-3z" fill="#322B2E"/>
<path transform="translate(1401,935)" d="m0 0h9l8 5 4 5 2 6v7l-4 7-6 4-5 1-8-2-8-7-3-8 1-9 6-7z" fill="#FDFDFD"/>
<path transform="translate(912,1411)" d="m0 0h3v7h9v2l4-1h77l8 2-1 4h-6l-1 2-10 1h-75l-1 2h-5l-1-2 2-2 2 1-3-3h-4l-1-3 2-7z" fill="#241A1E"/>
<path transform="translate(941,1530)" d="m0 0h13l-2 1 2 2 2-1v3h2v-2l4 1 5-2h14l5 1 3-1 4 2 3 1v2l4 1-1 2-29 1-7-1-6 2-2 3 2 1-2 3-1 10-2 2-3-4 1-5 3-1h-3v-8h2l-5-2h-3l-3-1v2h-10v-1h-29l-7-2 1-4 6-1 13-1 4-1 7 1 4-1h15z" fill="#241A1E"/>
<path transform="translate(448,1470)" d="m0 0 7 2 3 3h5 3l3 2h8v2h2l1-2 4-1h6l-1 3 5 3 1 2h-2v2l-4-1-89-1h-2-16l2-1v-3l9-1 3-2 11-1h3l2-2h6l6 2 1-2 5 3 5-1h7l8-2z" fill="#241A1E"/>
<path transform="translate(1124,1125)" d="m0 0 5 1 4 15-1 7-7 8-7 4-6 1-8-4-4-5v-8l4-6 7-6z" fill="#FDFDFD"/>
<path transform="translate(1032,1114)" d="m0 0h12l5 3 6 9 2 10-17 2-10 1h-14l1-7 6-12z" fill="#FDFDFD"/>
<path transform="translate(1607,1421)" d="m0 0h15l1 1v49l-1 3h-17l-1-11 1-2h15v-4h-15l-1-5 1-1h16l-1-6h-10l-5 1-1-3 1-3 15-1v-4l-5-1v-2h-6l-3 5h-1v-13z" fill="#322B2E"/>
<path transform="translate(860,1418)" d="m0 0 4 1 5-1 25 1 9 2 4 2-2 2-4 3h-34l-2-1v-2l-5 2-3 3-6-1-1-2 3-1-1-5 1-1h7z" fill="#241A1E"/>
<path transform="translate(1337,1474)" d="m0 0h6l8 2 5-1 2 1 5-1 6 1 5 1 6 2 1 5h-56l-1-4 5-1-3-4 5 1h3 2z" fill="#241A1E"/>
<path transform="translate(1268,1419)" d="m0 0h34l11 1h2l1 8-2 2-2-3h-2v-2h-4v2l-6 1h-36l-2-5 3-2h3z" fill="#241A1E"/>
<path transform="translate(872,251)" d="m0 0 2 1-3 3-1 2h-2l-1 4-7 7-1 2h-2l-2 4-14 14-7 8-5 4-8 7-4 3-2-1-1 2-2-2h2l2-4h2l2-4 10-10 6-7 4-4h2l2-4 4-4h2l2-4h2l2-4h2l2-4 4-4h2v-2l4-2z" fill="#241A1E"/>
<path transform="translate(383,1418)" d="m0 0 9 1h39v2l6 2-2 1-1 2-7 2v-2h-7l-4 1-3-1-4-1v3l-6-1-4 1h-3-12z" fill="#241A1E"/>
<path transform="translate(1337,1418)" d="m0 0 34 1 8 3-1 3-19 3h-28v-2l-1 2h-2l-1-5z" fill="#241A1E"/>
<path transform="translate(1391,1474)" d="m0 0 3 1-1 2h2v-2l5 1 5-1 1 1 4-1h12v3h2l1-3 2 1 11 1v2h3l-1 3-2 1 4 1h-49l-1-4 1-1-4-2 2-2z" fill="#241B1E"/>
<path transform="translate(1009,1151)" d="m0 0 3 2 1 3 2 1 1 6h2l1 2 5 3 6 5 16 2h6l4-1-1 4-7 3-1 1h-12l-13-4-7-6-6-10-1-7z" fill="#251C20"/>
<path transform="translate(1393,1418)" d="m0 0h21l19 1 5 3-1 3-3-1-1 2-2-1-1 3-7-2h-6l6 1v1h-30l1-2-2-1v-3h3v-2h-2z" fill="#241A1E"/>
<path transform="translate(1342,1532)" d="m0 0h25l4 2 6 1 1 2 3 1-1 4h-23l-20-1v-2h-2l-1 2-3-3 5-3 5-2z" fill="#241A1E"/>
<path transform="translate(1523,199)" d="m0 0 3 1-2 4-13 10-17 14-11 9h-5v2l-8 2v-3l10-8 16-13 7-5 7-4 4-2v-2z" fill="#261C20"/>
<path transform="translate(611,554)" d="m0 0h1l1 37 2 2 1 8 1 4v10l-1 5v19l1 8-3 9h-2v5h-1z" fill="#241A1E"/>
<path transform="translate(1292,1476)" d="m0 0h8l4 1 7 1 5 5-1 3-2-1-53-1 1-5 11-1z" fill="#241A1E"/>
<path transform="translate(1268,196)" d="m0 0h11v2l-10 2-9 2-3 1-17 2-8 2-36 4-9-1v-1l6-2z" fill="#261D21"/>
<path transform="translate(1386,161)" d="m0 0h9v1l7 1-1 2-69 10h-10l1-2 2-2 10-1 3 1v-2l13-3 20-2z" fill="#261D20"/>
<path transform="translate(1119,1419)" d="m0 0h34l9 3 1 2-13 2-7 1-11 1h-9l-5-1-2-2h-4l1-4z" fill="#241A1E"/>
<path transform="translate(1607,1421)" d="m0 0h15l1 1v31l-2 1-1-9h-10l-5 1-1-3 1-3 15-1v-4l-5-1v-2h-6l-3 5h-1v-13z" fill="#322B2E"/>
<path transform="translate(941,1530)" d="m0 0h13l-2 1 2 2 2-1v3h2v-2l4 1 5-2h14l5 1 3-1 4 2 3 1v2l4 1-1 2-29 1-7-1-6 1-3-2-2-3-2-1 1-4-6 1z" fill="#241A1E"/>
<path transform="translate(1521,128)" d="m0 0h10l-3 2-14 2v2l-7 2-3-1h-11l-1 4-11 2-9-1-6-1-6 1-3 4-9-1-3-1h-9l2-2z" fill="#251C20"/>
<path transform="translate(1178,1418)" d="m0 0 30 1 13 2 1 3-7 2-6 1-5 1h-14l-4-1v-2h-5l-1 2v-2l-4 1-1-4z" fill="#241A1E"/>
<path transform="translate(900,1243)" d="m0 0 16 3 23 4 17 2 12 1 2 2 8 1v1h-29l-29-4-11-2-1-3-8-3z" fill="#261C20"/>
<path transform="translate(661,1418)" d="m0 0h30l12 4-2 4-13 1h-5l-1 1h-7l1-2-13-1-5-2v-4z" fill="#241A1E"/>
<path transform="translate(798,1419)" d="m0 0h29l9 2 2 3-8 4h-23l-2-2h-5l-4-3z" fill="#241A1E"/>
<path transform="translate(735,1418)" d="m0 0h21l11 3 3 2-1 2-13 2h-2l-4 1h-11l-2-2-8-2v-2l3-3z" fill="#241A1E"/>
<path transform="translate(462,1418)" d="m0 0 32 1 5 2h6v3l-10 2-8-1 1 3-4-1h-2l-4 1h-8l-3-2-5-2-1-5z" fill="#241A1E"/>
<path transform="translate(1035,1106)" d="m0 0h5v2l4 2h-3l-1 3-5-1-10 2-9 9-3 8-2 14 2 1-3 4v-4h-2v8h-2l-1-6v-10l3-12 5-3 5-7 4-1-1-2 1-2h3l3-3z" fill="#261D20"/>
<path transform="translate(457,1534)" d="m0 0 1 2 4-2h8l1 2 5-1 1 4-15 1h-11l-1 2-1 3-1 2v29l-3 3-1-5h-2v-17l-1-2 4 1v-11l-2-5-2-1 3-1 3 3 1-5 1 2z" fill="#241A1E"/>
<path transform="translate(1016,198)" d="m0 0h10l-4 2-8 1-2 2v-2l-21 4-3 2h-15l-12 1-1 4v-3l-1 2h-16l-10 2-5 2-3-1-5-1-1 2-6-1 2-2 66-9z" fill="#271E21"/>
<path transform="translate(1059,1419)" d="m0 0h27l9 2 1 3-7 2h-21l4 2h-8l-3-2-7-2v-2z" fill="#241A1E"/>
<path transform="translate(1564,1629)" d="m0 0 5 2 3 2h3v3l3-1 24 8v3l7-2 11 1h3 8l-3 3-6 1h-13l-16-3-15-6-14-9z" fill="#271E22"/>
<path transform="translate(709,1377)" d="m0 0h4l1 2 2 1-2 1 1 2-1 4 2 1v14l-2 7-3 3h-2l-1-2-1-29z" fill="#241A1E"/>
<path transform="translate(1424,142)" d="m0 0h11l-4 2-3 2-2 2-6-1-4 1-5-1-3 1-2 3-11 2h-5l-2-1h-5l-6-2-1 2v-3l9-2z" fill="#261C20"/>
<path transform="translate(1608,1488)" d="m0 0h11l3 2v11l-3 3-7 1-4-2-2-4v-7z" fill="#332C2F"/>
<path transform="translate(1582,1031)" d="m0 0 7 2 9 9 9 12 4 7 1 7-2 2-8-12-8-10-5-6-6-6 3-2-4-2z" fill="#261D21"/>
<path transform="translate(1316,467)" d="m0 0h37l1 2h-9v1h-11l-3-2-1 3-6-1-1 2-7-1-9 1h-5l-1 3 4-1 1-2-1 4-7 1h-7l-9 1-1-3h3v-2l18-4z" fill="#271D21"/>
<path transform="translate(525,1475)" d="m0 0 6 1 10 3v3h2l1-3 2 4-3 1h-39l1-2 6-2v2l5-3-2-2 7-1z" fill="#241A1E"/>
<path transform="translate(1259,983)" d="m0 0h8l3 2 1 9-6 5-4 1-6-4-1-7 3-5z" fill="#332C2F"/>
<path transform="translate(1110,1476)" d="m0 0 4 2h7v2l3-1 1-2 5 1 4-1h1l7 1 1 1h6l2 1-1 4h-39z" fill="#241A1E"/>
<path transform="translate(1272,302)" d="m0 0h17l17 2 4 1v2h-53l-9-1 1-2z" fill="#271D21"/>
<path transform="translate(411,1533)" d="m0 0 9 1 2-1 7 1h5l1 3 2 1h-2v2h-32l-5 1-1-6z" fill="#241A1E"/>
<path transform="translate(789,1198)" d="m0 0 5 2 5 4 9 4h2v2l5 1 3 3v2l3-1 4 2 1 1 10 5 4 1v2l3 1v3l3-1v2l3 1-2 1-16-7-18-10-21-14z" fill="#271D21"/>
<path transform="translate(1482,166)" d="m0 0h11l-4 2h-3v2l-8 1h-14v2l-12 2-19 1-7 2h-7l1-3z" fill="#271D21"/>
<path transform="translate(537,1418)" d="m0 0 21 1 3 1 1 4-4 1-10 1 5 1v1h-20l2-2-2-2 1-4z" fill="#241A1E"/>
<path transform="translate(520,1418)" d="m0 0h6v2l-5 2-2 3h2l1-2 7 2 2 1 1 2h-8v2l-2 2v14l-2 2v-5l-1-1-2 2h-2l-1-15 2-2-1-4 3-4z" fill="#241A1E"/>
<path transform="translate(852,1431)" d="m0 0 1 4 1-1 2-1-1 8 1 5-1 17h-2v-2l-3 1-2-3v-16z" fill="#241A1E"/>
<path transform="translate(448,1433)" d="m0 0 3 1 3 4 1 10v17l-2 2-1-4-4 1v-21l3-3-2-1-1-1z" fill="#241A1E"/>
<path transform="translate(843,270)" d="m0 0 2 1-14 16-5 5-3 1-2 4h-2l-2 4h-2l-2 4-6 6h-2l-2 4-16 16h-2l-2 4-5 4 2-5h2v-3l4-1v-3l4-1-1-3 6-3 5-6 1-1-1-2 5-2 1-3h4l2-4 4-4h2l1-3 6-5 14-16z" fill="#241A1E"/>
<path transform="translate(1283,1534)" d="m0 0h13l9 3v4h-14l-18-1v-3z" fill="#241A1E"/>
<path transform="translate(912,1379)" d="m0 0 2 1 1 3v15l-3 1 1 8-1 2-4-2v-25l3-1z" fill="#251B1F"/>
<path transform="translate(826,1487)" d="m0 0 5 3 1-1h2v6l-3 9 2 1-2 13-4-2-1-14-1-2h2v-8-2l-2-2z" fill="#241B1F"/>
<path transform="translate(1269,163)" d="m0 0h13l-3 1v2l-7 1h-2l-6 1v2l-3-1 1-1h-7l-4 3-6 1v-2l-5 1h-5-3v-2l9-2z" fill="#271E22"/>
<path transform="translate(521,1417)" d="m0 0h23l-4 2-5 1-1 4 5 1-3 2h9l7 1v1h-24l2-3-1 1-4-2h-4-2l1-4 6-1v-2h-5z" fill="#332C2F"/>
<path transform="translate(1423,912)" d="m0 0 3 1 3 5-2 4-5 2h-11l-3-1v-2l13-7z" fill="#281F23"/>
<path transform="translate(512,1375)" d="m0 0h1l1 16v8l-3 7-2 2-1-2v-24h3l-1-3h2z" fill="#241A1E"/>
<path transform="translate(832,278)" d="m0 0h3l-2 4-9 10h-2l-1 3-8 7-5 5-2 1-3 3h-2l2-4z" fill="#322B2E"/>
<path transform="translate(1009,1151)" d="m0 0 3 2 1 3 2 1 1 6h2l1 2 5 3 5 5-2 1v-2h-2l-1 2-6-6-1 1-1 2-5-5-3-6z" fill="#261C20"/>
<path transform="translate(446,1548)" d="m0 0h1l1 11v17l-3 3-1-5h-2v-17l-1-2 4 1v-7z" fill="#251B1F"/>
<path transform="translate(1456,982)" d="m0 0 6 2 2 4 4 1 2 7v8h-4l-1 2-2-2-1-12-4-6z" fill="#251B1F"/>
<path transform="translate(603,1418)" d="m0 0h10v2h12l-1 3 2 1-5 1h-12l-7-1z" fill="#241A1E"/>
<path transform="translate(917,1436)" d="m0 0h2l1 7-1 23-4 3v-23l1-6v-3z" fill="#241A1E"/>
<path transform="translate(448,1417)" d="m0 0 12 1-2 4-1 1h4v2l6 1-4 2-10 2h-3l-1-4 1-2-1-2 2-3z" fill="#241A1E"/>
<path transform="translate(1035,1106)" d="m0 0h5v2l4 2h-3l-1 3-5-1-10 2-9 9h-2l2-5 5-3 1-4h3l3-3z" fill="#241A1E"/>
<path transform="translate(1316,467)" d="m0 0h37l1 2h-9v1h-11l-3-2-1 3-6-1-1 2-7-1-9 1 1-3z" fill="#261C20"/>
<path transform="translate(563,313)" d="m0 0h2l12 16 2 6-4-2-3-1-3-4-6-7-3-5h3z" fill="#2A2225"/>
<path transform="translate(1165,1183)" d="m0 0v3l-10 5-17 5h-2v-3l8-4 9-3h8l1-2z" fill="#261C20"/>
<path transform="translate(1145,326)" d="m0 0h8l2 2-9 2-2 1h-3l-4 1-4 2h-4l-1 2-3-1-1 2-1-1-2 2h-4l1-3z" fill="#281E22"/>
<path transform="translate(1212,310)" d="m0 0h6l1 4-8 1-2-1-1 2-6 1-3 1-2-1v2h-4l-3-1v-2l7-3z" fill="#241A1E"/>
<path transform="translate(577,1559)" d="m0 0 1 2 2 1h-2l1 8v6l-3 2-4-4v-12l5-1z" fill="#241A1E"/>
<path transform="translate(649,1442)" d="m0 0 4 2h-2l2 4 1-2 2 5v7l-2-1-1 2h-2l-1 3-2-1v-16z" fill="#241A1E"/>
<path transform="translate(1521,128)" d="m0 0h10l-3 2-14 2v2l-7 2-3-1h-7l-4-1v-2z" fill="#271E22"/>
<path transform="translate(923,1473)" d="m0 0h57v1l-8 1-6-1-1 2v-2l-5 2-4 1 1-2-5-1-1 3h-3l-5-2-6 1v-2h-6v2l-8-1z" fill="#332C2F"/>
<path transform="translate(917,1529)" d="m0 0h37v1l-9 1 1 2h-19l-5 1z" fill="#332C2F"/>
<path transform="translate(1393,1600)" d="m0 0h15l7 2-4 3h-20l-5-2v-1z" fill="#241A1E"/>
<path transform="translate(455,1417)" d="m0 0h38l1 2h-32v5l5 1-3 1-3-1v-2l-4 1-2-1 1-2 2 1 1-3h-4z" fill="#332C2F"/>
<path transform="translate(1459,137)" d="m0 0h7v2l-6 1-3 4-9-1-3-1h-9l2-2z" fill="#261D21"/>
<path transform="translate(973,1083)" d="m0 0h1l1 8 1 1-1 16-2-1-2 3v-18l1-8z" fill="#261D20"/>
<path transform="translate(576,931)" d="m0 0 3 2v22l-2-1-1 6h-1v-27z" fill="#261C20"/>
<path transform="translate(702,1484)" d="m0 0h53v1l-52 1-1 11-1 5-3-6v-6l2-3z" fill="#332C2F"/>
<path transform="translate(1107,1091)" d="m0 0h13l2 5-7 1-4 1v-1l-8-2v-3z" fill="#261D21"/>
<path transform="translate(799,312)" d="m0 0h3v2h-2l-2 4h-2l-2 4h-2l-1 2-2-1 2-4 4-2 2-4zm-11 11 2 1v2l-4 1v3l-4 1v3h-2v2l-4 1 2-4z" fill="#2B2326"/>
<path transform="translate(1606,1467)" d="m0 0h15l-1 5-2 1h-11l-2-5z" fill="#FDFDFD"/>
<path transform="translate(1162,178)" d="m0 0h11v3l-1 2-4-1v2h-2v-2l-6 1-1-1-16 1 4-3z" fill="#292024"/>
<path transform="translate(1605,1451)" d="m0 0h16l-1 4-1 1-14 1-1-5z" fill="#312A2D"/>
<path transform="translate(1613,1422)" d="m0 0 6 1 2 2v4h-14l1-5z" fill="#FDFDFD"/>
<path transform="translate(1193,174)" d="m0 0h11v1l-9 2-2 1 1 2-8-1-1-1-2 2-4-1-3 1-2-2 4-2z" fill="#251C20"/>
<path transform="translate(602,1425)" d="m0 0h18l4 2-3 2h-17l-6-1z" fill="#2D2529"/>
<path transform="translate(1541,1021)" d="m0 0 6 1-2 4-2 2-3-1h-16l-1-3 5-1 13 1-2-2z" fill="#251C20"/>
<path transform="translate(681,454)" d="m0 0 2 1-1 5-11 11-4-2 4-2 2-5z" fill="#2A2125"/>
<path transform="translate(571,351)" d="m0 0 4 1 4 8 2 10-5-3-5-11z" fill="#281F23"/>
<path transform="translate(1424,142)" d="m0 0h11l-4 2-3 2-2 2-6-1-4 1-2-2-4-2z" fill="#271D21"/>
<path transform="translate(1132,1366)" d="m0 0 3 3 8 1 7-2 2-1 1 4-15 2-9-1-4-3z" fill="#241A1E"/>
<path transform="translate(1572,136)" d="m0 0h13l4 2-7 2-7 1h-11l3-2h4z" fill="#261D21"/>
<path transform="translate(970,238)" d="m0 0h13v1l-8 2-4 2h-9l-7-1 1-2z" fill="#271D21"/>
<path transform="translate(383,1418)" d="m0 0 11 1-1 5-8 3-2-3z" fill="#271E22"/>
<path transform="translate(1015,1167)" d="m0 0 4 1 3 3 5 1 1 5-6 1-7-6 1-3z" fill="#312A2D"/>
<path transform="translate(861,1425)" d="m0 0h4v2h34l2 2h-42z" fill="#332C2F"/>
<path transform="translate(1221,170)" d="m0 0h10l-4 2-5 1-4 1-2-1-1 3-4-1-2 1-4-3 9-2z" fill="#271E22"/>
<path transform="translate(968,1122)" d="m0 0h4l-1 7 1 2-1 13-3-3z" fill="#261C20"/>
<path transform="translate(999,234)" d="m0 0h11v1l-9 2-7 2-10-1 1-2z" fill="#271E22"/>
<path transform="translate(479,1425)" d="m0 0h7l-1 2 3 2h-29l4-2 9-1 4 1h5z" fill="#332C2F"/>
<path transform="translate(1389,950)" d="m0 0 2 3v6h-2l3 4v2h2l1 3-4 1-3-5-2-9v-3h2z" fill="#241A1E"/>
<path transform="translate(1411,1535)" d="m0 0h4v2h8v2l-5 1-3 1h-5-1l-4-1 1-3 3-1 1 1z" fill="#241A1E"/>
<path transform="translate(1604,1071)" d="m0 0 3 4 1 13h-2l-2-4-3-3v-5h2z" fill="#251C20"/>
<path transform="translate(785,372)" d="m0 0m-1 1m-1 1m-1 1m-1 1m-1 1m-1 1m-1 1m-1 1 5 2-8 8h-4l1-4z" fill="#2C2427"/>
<path transform="translate(1016,198)" d="m0 0h10l-4 2-8 1-2 2v-2l-11 2-6-1v-1z" fill="#281F23"/>
<path transform="translate(1434,173)" d="m0 0h11v2l-18 2-5 1h-3l1-3z" fill="#2A2125"/>
<path transform="translate(834,1223)" d="m0 0 6 1v2l3 1v3l3-1v2l3 1-2 1-14-6-1-3z" fill="#281F23"/>
<path transform="translate(592,1480)" d="m0 0h11l1 2-2 2h-17v-1l6-2z" fill="#241A1E"/>
<path transform="translate(1102,1560)" d="m0 0 2 4v2h2v5h-3l1 3h-2l-1-7h-2l2-5z" fill="#241A1E"/>
<path transform="translate(1068,1425)" d="m0 0h15v3l-1 1h-12l-3-3z" fill="#30292C"/>
<path transform="translate(1130,1102)" d="m0 0 5 1 2 4v6l-1-2-3 1v-2h-2z" fill="#261D21"/>
<path transform="translate(930,210)" d="m0 0h6l-4 1v3l-4 1-3-1-5-1-1 2-6-1 2-2z" fill="#292024"/>
<path transform="translate(1102,186)" d="m0 0h12l-3 2h-3l-3 3-3-1-9-1 1-2z" fill="#271E21"/>
<path transform="translate(965,1602)" d="m0 0 4 1h1l4 1 3 1v-2h5v3h-19l-1-3z" fill="#332C2F"/>
<path transform="translate(876,1163)" d="m0 0h2l5 6v2l4 2 4 4-1 2-3-3-6-3-2-6h-2z" fill="#292024"/>
<path transform="translate(571,323)" d="m0 0 5 5 3 5v2l-4-2-3-1-3-4z" fill="#271E21"/>
<path transform="translate(824,1489)" d="m0 0 4 1 1 2h-2l1 4-2 5v3h-2z" fill="#312A2D"/>
<path transform="translate(1016,1163)" d="m0 0h2l1 2 5 3 5 5-2 1v-2h-2l-1 2-6-6-3-2h2z" fill="#241A1E"/>
<path transform="translate(1585,1047)" d="m0 0 7 3 1 3-3 3 1 2-4-2-2-5z" fill="#271D21"/>
<path transform="translate(1212,310)" d="m0 0h6l1 4-8 1-9-2v-1z" fill="#2A2124"/>
<path transform="translate(383,1426)" d="m0 0 2 1h11l3-1 3 1 4-1 3 3h-26z" fill="#332C2F"/>
<path transform="translate(511,1377)" d="m0 0v3l1 3-2 2-1-2-1 23h-1v-28z" fill="#332C2F"/>
<path transform="translate(974,1175)" d="m0 0 2 1v2l2 1v2l3 1h-12v-3h3l-1-3z" fill="#261C20"/>
<path transform="translate(1145,326)" d="m0 0h8l2 2-9 2-2 1-6-2 4-2z" fill="#261D21"/>
<path transform="translate(1036,195)" d="m0 0h12v1h-6l-1 3-7-1h-7l2-2z" fill="#281F22"/>
<path transform="translate(1119,1119)" d="m0 0h7v3l-5 3h-3l-1-5z" fill="#261C20"/>
<path transform="translate(606,978)" d="m0 0h1l1 7v10l-2 1-1-4v-13z" fill="#241A1E"/>
<path transform="translate(1331,467)" d="m0 0h22l1 2h-9v1h-11z" fill="#241A1E"/>
<path transform="translate(1268,196)" d="m0 0h11v2l-10 2-8-2v-1z" fill="#281E22"/>
<path transform="translate(1072,190)" d="m0 0h10l-4 2-3 2v-2l-7 2-4 1-1-3z" fill="#271E22"/>
<path transform="translate(1233,1444)" d="m0 0h1l1 6v8l-2 5h-1v-17z" fill="#241A1E"/>
<path transform="translate(447,1433)" d="m0 0h1v5l2 1v3l-1 1-1 21h-1z" fill="#332C2F"/>
<path transform="translate(583,1441)" d="m0 0 2 4v10l-3 1-1-6v-4h2z" fill="#241A1E"/>
<path transform="translate(1052,1425)" d="m0 0 4 2 6-1 8 2v1h-24l4-2z" fill="#332C2F"/>
<path transform="translate(899,1245)" d="m0 0 9 2 1 3-9-1-5-1v-2z" fill="#2F282B"/>
<path transform="translate(813,297)" d="m0 0 2 1-4 4-1 4-4 2-3 3h-2l2-4z" fill="#2C2327"/>
<path transform="translate(1405,1533)" d="m0 0v3h-4v4l-4 1v-3l-4-2 3-2z" fill="#241A1E"/>
<path transform="translate(1134,1148)" d="m0 0h2l1 5-3 4-4-1 3-7z" fill="#251B1F"/>
<path transform="translate(1376,1599)" d="m0 0 2 1 1-1 2 4-5 2h-1-3v-2l-2-1 1-2z" fill="#241A1E"/>
<path transform="translate(449,1389)" d="m0 0 2 1v8l-1 3h-2l-1-9v-2z" fill="#241A1E"/>
<path transform="translate(408,1367)" d="m0 0 4 2 5 1-3 2h-9l1-4z" fill="#241B1E"/>
<path transform="translate(1035,1139)" d="m0 0h8v3l2 1-1 1h-5l-3-1z" fill="#241B1E"/>
<path transform="translate(1167,178)" d="m0 0h6v3l-1 2-4-1v2h-2v-2l-3-1 1-2z" fill="#241A1E"/>
<path transform="translate(1098,1599)" d="m0 0 5 1h11l-2 3-7 1-3-1v-2h-4z" fill="#241A1E"/>
<path transform="translate(1075,1208)" d="m0 0h6v2l-5 2v-2l-12 2-3-2z" fill="#241A1E"/>
<path transform="translate(1019,231)" d="m0 0h12v1l-11 2h-9l1-2z" fill="#281F23"/>
<path transform="translate(563,1477)" d="m0 0 6 2v5l-2 1v-2h-3l-1-3-4-1z" fill="#241A1E"/>
<path transform="translate(1193,174)" d="m0 0h11v1l-15 3-4-3z" fill="#292124"/>
<path transform="translate(946,1531)" d="m0 0h5l1 4 2 1 1 3 2 2-5-1-3-3v-4l-3-1z" fill="#322B2E"/>
<path transform="translate(715,1448)" d="m0 0 6 2-1 5-5-1z" fill="#241A1E"/>
<path transform="translate(721,1425)" d="m0 0h5l2 3-6 2-1 3h-2l1-5-1-2z" fill="#241A1E"/>
<path transform="translate(1263,984)" d="m0 0h6v3l-11 3 1-3h4z" fill="#241A1E"/>
<path transform="translate(855,1417)" d="m0 0h17l-3 2-6 1h-3l-4-1z" fill="#332C2F"/>
<path transform="translate(1403,986)" d="m0 0 1 4h2l1-2 3 4-3 3h-1l-2 1-1-2z" fill="#261C20"/>
<path transform="translate(551,301)" d="m0 0h2v6l5 5 1 2-4-2-6-7z" fill="#251B1F"/>
<path transform="translate(1207,172)" d="m0 0h9l-1 4-4-1-2 1-4-3z" fill="#261C20"/>
<path transform="translate(1393,1600)" d="m0 0 4 1v3l-6 1-5-2v-1z" fill="#251B1F"/>
<path transform="translate(1300,1052)" d="m0 0 3 4 4 1v2h-2l1 4h-2l-5-7z" fill="#292023"/>
<path transform="translate(610,523)" d="m0 0h2v2l4 1-2 4h-4z" fill="#281F23"/>
<path transform="translate(1197,313)" d="m0 0h5l-3 3h-2v3h-4l-3-1v-2z" fill="#271E22"/>
<path transform="translate(658,661)" d="m0 0h5l-3 3-4 1h-7l1-2z" fill="#281F22"/>
<path transform="translate(1122,184)" d="m0 0h5v3l-5 2v-2l-4-1z" fill="#251B1F"/>
<path transform="translate(1273,163)" d="m0 0h9l-3 1v2l-7 1-2-3z" fill="#241A1E"/>
<path transform="translate(1051,1421)" d="m0 0 2 4-3 3-4-1 1-5z" fill="#241A1E"/>
<path transform="translate(1541,1021)" d="m0 0 6 1-2 4-2 2-3-3 1-1-2-2z" fill="#241A1E"/>
<path transform="translate(1241,1152)" d="m0 0 3 1-3 3-6 2-2-2 3-1v-2z" fill="#251B1F"/>
<path transform="translate(358,1017)" d="m0 0h3v2h4v2l6 1-1 2-5-1-7-5z" fill="#292023"/>
<path transform="translate(783,328)" d="m0 0h3v2l-4 1v3h-2v2l-4 1 2-4z" fill="#2E2629"/>
<path transform="translate(543,296)" d="m0 0h2v2l4 1 1 5-1-2-4-2h-3v-3z" fill="#251C1F"/>
<path transform="translate(1420,175)" d="m0 0h13v1l-7 2h-7z" fill="#261D21"/>
</svg>
